<svg width="47" height="42" viewBox="0 0 47 42" fill="none" xmlns="http://www.w3.org/2000/svg">
<g id="Group 18">
<path id="Fill 184" fill-rule="evenodd" clip-rule="evenodd" d="M23.4155 1.33329C21.6888 1.33329 20.2842 2.73913 20.2842 4.46463V5.22413C20.2842 6.94963 21.6877 8.35546 23.4143 8.35546C23.4155 8.35546 23.4155 8.35546 23.4155 8.35546C24.252 8.35546 25.0372 8.02996 25.6287 7.43846C26.2202 6.84696 26.5468 6.06063 26.5468 5.22413V4.46579C26.5468 3.62929 26.2213 2.84296 25.6298 2.25146C25.0383 1.65996 24.252 1.33329 23.4155 1.33329ZM23.4155 9.52213H23.4143C21.0448 9.52213 19.1175 7.59363 19.1175 5.22413V4.46463C19.1175 2.09513 21.046 0.166626 23.4155 0.166626C24.5635 0.167793 25.6438 0.614626 26.4547 1.42663C27.2667 2.23863 27.7135 3.31779 27.7135 4.46579V5.22413C27.7135 6.37213 27.2655 7.45129 26.4535 8.26329C25.6427 9.07529 24.5635 9.52213 23.4155 9.52213Z" fill="url(#paint0_linear_0_322)"/>
<path id="Fill 185" fill-rule="evenodd" clip-rule="evenodd" d="M19.9248 40.7585H18.7582L18.7605 16.843H19.9272L19.9248 40.7585Z" fill="url(#paint1_linear_0_322)"/>
<path id="Fill 186" fill-rule="evenodd" clip-rule="evenodd" d="M28.067 40.7585H26.9003L26.9027 16.843H28.0693L28.067 40.7585Z" fill="url(#paint2_linear_0_322)"/>
<path id="Fill 187" fill-rule="evenodd" clip-rule="evenodd" d="M23.9965 40.7585H22.8287L22.8298 25.6898H23.9965V40.7585Z" fill="url(#paint3_linear_0_322)"/>
<path id="Fill 188" fill-rule="evenodd" clip-rule="evenodd" d="M29.5335 26.2731H27.486V25.1064H29.5335C29.957 25.1064 30.3023 24.7611 30.3023 24.3376V14.9797C30.3035 13.7547 29.5218 12.6721 28.3587 12.2859C25.1713 11.2277 21.6608 11.2289 18.4723 12.2847C17.308 12.6709 16.5275 13.7524 16.5275 14.9786L16.5263 24.3364C16.5263 24.7599 16.8705 25.1041 17.2952 25.1052H19.3427V26.2719H17.294C16.2265 26.2707 15.3597 25.4027 15.3597 24.3352L15.3608 14.9786C15.3608 13.2496 16.4633 11.7224 18.1048 11.1776C21.5302 10.0424 25.302 10.0436 28.7262 11.1787C30.3677 11.7236 31.4702 13.2507 31.469 14.9797V24.3376C31.469 25.4051 30.601 26.2731 29.5335 26.2731Z" fill="url(#paint4_linear_0_322)"/>
<path id="Fill 189" fill-rule="evenodd" clip-rule="evenodd" d="M38.1073 3.92558C36.3807 3.92558 34.976 5.32908 34.976 7.05574V7.81524C34.976 8.65058 35.3015 9.43808 35.893 10.0296C36.4845 10.6199 37.2708 10.9466 38.1073 10.9466C39.834 10.9466 41.2387 9.54191 41.2387 7.81524V7.05691C41.2387 5.33024 39.834 3.92558 38.1073 3.92558ZM38.1073 12.1132C36.9582 12.1132 35.879 11.6652 35.0682 10.8544C34.2562 10.0424 33.8093 8.96324 33.8093 7.81524V7.05574C33.8093 4.68624 35.7378 2.75891 38.1073 2.75891C40.4768 2.75891 42.4053 4.68624 42.4053 7.05691V7.81524C42.4053 10.1847 40.4768 12.1132 38.1073 12.1132Z" fill="url(#paint5_linear_0_322)"/>
<path id="Fill 190" fill-rule="evenodd" clip-rule="evenodd" d="M8.7225 3.92216C7.88717 3.92216 7.10083 4.24766 6.50933 4.83916C5.91783 5.43066 5.59233 6.21699 5.59233 7.05349V7.81183C5.59233 9.53849 6.997 10.9432 8.7225 10.9432C10.4492 10.9432 11.8538 9.53849 11.855 7.81299V7.05349C11.855 5.32683 10.4503 3.92216 8.72367 3.92216C8.72367 3.92216 8.72367 3.92216 8.7225 3.92216ZM8.7225 12.1098C6.353 12.1098 4.42567 10.1813 4.42567 7.81183V7.05349C4.42567 5.90433 4.8725 4.82516 5.6845 4.01433C6.4965 3.20233 7.57567 2.75549 8.7225 2.75549C8.72367 2.75549 8.72367 2.75549 8.72367 2.75549C11.0932 2.75549 13.0217 4.68399 13.0217 7.05349V7.81299C13.0205 10.1825 11.092 12.1098 8.7225 12.1098Z" fill="url(#paint6_linear_0_322)"/>
<path id="Fill 191" fill-rule="evenodd" clip-rule="evenodd" d="M42.7588 40.7596H41.5922L41.5933 19.4353H42.76L42.7588 40.7596Z" fill="url(#paint7_linear_0_322)"/>
<path id="Fill 192" fill-rule="evenodd" clip-rule="evenodd" d="M44.2242 28.8643H42.1767V27.6976H44.2242C44.6488 27.6976 44.993 27.3523 44.993 26.93L44.9942 17.571C44.9942 16.346 44.2125 15.2633 43.0505 14.8771C39.862 13.8201 36.3515 13.819 33.163 14.876L32.7955 13.7688C36.2197 12.6348 39.9927 12.6348 43.4168 13.77C45.0583 14.3148 46.1608 15.842 46.1608 17.571L46.1597 26.93C46.1597 27.9963 45.2917 28.8643 44.2242 28.8643Z" fill="url(#paint8_linear_0_322)"/>
<path id="Fill 193" fill-rule="evenodd" clip-rule="evenodd" d="M34.6167 40.7596H33.45L33.4512 19.4341H34.6178L34.6167 40.7596Z" fill="url(#paint9_linear_0_322)"/>
<path id="Fill 194" fill-rule="evenodd" clip-rule="evenodd" d="M38.6872 40.7596H37.5205L37.5217 28.2798H38.6883L38.6872 40.7596Z" fill="url(#paint10_linear_0_322)"/>
<path id="Fill 195" fill-rule="evenodd" clip-rule="evenodd" d="M5.23183 40.7562H4.06517L4.0675 19.4307H5.23417L5.23183 40.7562Z" fill="url(#paint11_linear_0_322)"/>
<path id="Fill 196" fill-rule="evenodd" clip-rule="evenodd" d="M9.3035 40.7561H8.13683L8.138 28.2775H9.30467L9.3035 40.7561Z" fill="url(#paint12_linear_0_322)"/>
<path id="Fill 197" fill-rule="evenodd" clip-rule="evenodd" d="M13.374 40.7573H12.2085L12.2097 19.4318H13.3763L13.374 40.7573Z" fill="url(#paint13_linear_0_322)"/>
<path id="Fill 198" fill-rule="evenodd" clip-rule="evenodd" d="M4.64967 28.8596H2.60217C1.53467 28.8596 0.666668 27.9916 0.666668 26.9253L0.667835 17.5675C0.667835 15.8373 1.77033 14.3101 3.41183 13.7665C6.836 12.629 10.6078 12.6301 14.0332 13.7676L13.6657 14.8748C10.4783 13.8155 6.96667 13.8155 3.77933 14.8736C2.61617 15.2598 1.8345 16.3413 1.8345 17.5675L1.83333 26.9253C1.83333 27.3488 2.1775 27.693 2.60217 27.693H4.64967V28.8596Z" fill="url(#paint14_linear_0_322)"/>
</g>
<defs>
<linearGradient id="paint0_linear_0_322" x1="28.6183" y1="-5.21119" x2="9.42736" y2="4.65217" gradientUnits="userSpaceOnUse">
<stop stop-color="#FF52C1"/>
<stop offset="1" stop-color="#9952FF"/>
</linearGradient>
<linearGradient id="paint1_linear_0_322" x1="20.0502" y1="3.09568" x2="16.7534" y2="3.18583" gradientUnits="userSpaceOnUse">
<stop stop-color="#FF52C1"/>
<stop offset="1" stop-color="#9952FF"/>
</linearGradient>
<linearGradient id="paint2_linear_0_322" x1="28.1924" y1="3.09568" x2="24.8956" y2="3.18583" gradientUnits="userSpaceOnUse">
<stop stop-color="#FF52C1"/>
<stop offset="1" stop-color="#9952FF"/>
</linearGradient>
<linearGradient id="paint3_linear_0_322" x1="24.1194" y1="17.0279" x2="20.8297" y2="17.1705" gradientUnits="userSpaceOnUse">
<stop stop-color="#FF52C1"/>
<stop offset="1" stop-color="#9952FF"/>
</linearGradient>
<linearGradient id="paint4_linear_0_322" x1="33.1646" y1="1.16038" x2="-1.29615" y2="20.6338" gradientUnits="userSpaceOnUse">
<stop stop-color="#FF52C1"/>
<stop offset="1" stop-color="#9952FF"/>
</linearGradient>
<linearGradient id="paint5_linear_0_322" x1="43.3101" y1="-2.61823" x2="24.1202" y2="7.24585" gradientUnits="userSpaceOnUse">
<stop stop-color="#FF52C1"/>
<stop offset="1" stop-color="#9952FF"/>
</linearGradient>
<linearGradient id="paint6_linear_0_322" x1="13.9265" y1="-2.62165" x2="-5.26347" y2="7.24243" gradientUnits="userSpaceOnUse">
<stop stop-color="#FF52C1"/>
<stop offset="1" stop-color="#9952FF"/>
</linearGradient>
<linearGradient id="paint7_linear_0_322" x1="42.8829" y1="7.17745" x2="39.5901" y2="7.27832" gradientUnits="userSpaceOnUse">
<stop stop-color="#FF52C1"/>
<stop offset="1" stop-color="#9952FF"/>
</linearGradient>
<linearGradient id="paint8_linear_0_322" x1="47.5676" y1="3.75231" x2="16.6444" y2="18.2506" gradientUnits="userSpaceOnUse">
<stop stop-color="#FF52C1"/>
<stop offset="1" stop-color="#9952FF"/>
</linearGradient>
<linearGradient id="paint9_linear_0_322" x1="34.7408" y1="7.17556" x2="31.4479" y2="7.27643" gradientUnits="userSpaceOnUse">
<stop stop-color="#FF52C1"/>
<stop offset="1" stop-color="#9952FF"/>
</linearGradient>
<linearGradient id="paint10_linear_0_322" x1="38.8113" y1="21.106" x2="35.5243" y2="21.2781" gradientUnits="userSpaceOnUse">
<stop stop-color="#FF52C1"/>
<stop offset="1" stop-color="#9952FF"/>
</linearGradient>
<linearGradient id="paint11_linear_0_322" x1="5.35721" y1="7.17214" x2="2.06107" y2="7.27321" gradientUnits="userSpaceOnUse">
<stop stop-color="#FF52C1"/>
<stop offset="1" stop-color="#9952FF"/>
</linearGradient>
<linearGradient id="paint12_linear_0_322" x1="9.42759" y1="21.1044" x2="6.14065" y2="21.2764" gradientUnits="userSpaceOnUse">
<stop stop-color="#FF52C1"/>
<stop offset="1" stop-color="#9952FF"/>
</linearGradient>
<linearGradient id="paint13_linear_0_322" x1="13.4993" y1="7.17324" x2="10.2064" y2="7.27411" gradientUnits="userSpaceOnUse">
<stop stop-color="#FF52C1"/>
<stop offset="1" stop-color="#9952FF"/>
</linearGradient>
<linearGradient id="paint14_linear_0_322" x1="15.4401" y1="3.74788" x2="-15.4847" y2="18.2483" gradientUnits="userSpaceOnUse">
<stop stop-color="#FF52C1"/>
<stop offset="1" stop-color="#9952FF"/>
</linearGradient>
</defs>
</svg>
